<svg width="650" height="650" viewBox="0 0 650 650" fill="none" xmlns="http://www.w3.org/2000/svg">
<circle cx="325" cy="325" r="325" fill="#E9E9E9"/>
<path d="M176 146C176 141.582 179.582 138 184 138H467C471.418 138 475 141.582 475 146V198C475 202.418 373.526 217 369.108 217H280.718C276.299 217 176 202.418 176 198V146Z" fill="rgb(93, 78, 233)" style="mix-blend-mode:darken"/>
<path d="M176 453C176 448.582 276.299 429.5 280.718 429.5H369.108C373.526 429.5 475 448.582 475 453V505C475 509.418 471.418 513 467 513H184C179.582 513 176 509.418 176 505V453Z" fill="rgb(93, 78, 233)" style="mix-blend-mode:darken"/>
<path d="M280.718 187.731C280.718 178.894 287.881 171.731 296.718 171.731H353.108C361.944 171.731 369.108 178.894 369.108 187.731V463.228C369.108 472.065 361.944 479.228 353.108 479.228H296.718C287.881 479.228 280.718 472.065 280.718 463.228V187.731Z" fill="rgb(93, 78, 233)" style="mix-blend-mode:darken"/>
</svg>
